<svg xmlns="http://www.w3.org/2000/svg" fill="none" viewBox="0 0 1000 1000" height="1000" width="1000">
<path fill="#FAF9F5" d="M488.755 117.153C498.928 125.804 503.404 135.558 511.306 144.411C512.125 145.339 516.426 147.815 518.012 149.59C524.772 157.192 534.811 170.646 540.254 179.095C540.778 179.916 542.377 195.24 542.243 200.702C541.907 214.452 543.815 244.373 533.91 254.464C527.849 260.639 527.07 263.666 522.044 270.366C517.125 276.905 510.876 284.049 505.728 289.968C502.234 293.991 491.134 306.745 486.806 307.808C486.349 307.916 477.815 308.131 477.345 308.037C456.178 304.041 428.991 309.382 406.373 306.826C401.333 306.261 400.903 304.552 398.713 304.108C394.264 303.207 388.889 304.108 384.642 301.821C382.626 300.732 368.488 287.345 366.096 284.856C357.401 275.815 349.23 264.783 341.099 255.204C340.373 254.343 336.745 226.184 336.49 219.416C336.14 210.416 333.304 197.769 333.909 188.338C334.353 181.476 346.703 163.233 350.614 156.802C352.294 154.044 361.204 138.074 362.158 137.32C366.324 134.051 376.901 129.584 381.658 126.584C386.886 123.288 395.124 115.458 401.091 114.139C405.849 113.077 418.159 114.583 424.072 114.166C428.843 113.83 435.536 112.041 440.616 111.476C442.054 111.314 459.202 111.502 461.702 111.502C471.042 111.529 480.96 110.547 488.755 117.167V117.153Z"></path>
<path fill="#141413" d="M938.387 49.0135C943.499 52.6736 949.271 57.3834 950.859 63.6945C950.859 63.6945 933.341 82.0356 927.569 83.3274C911.37 86.9338 891.215 88.858 876.092 94.9269C858.695 101.897 852.937 111.142 840.518 123.912C832.338 132.322 825.207 138.607 818.547 148.901C807.878 165.385 801.527 184.601 792.472 201.489C788.194 209.468 785.852 218.39 782.946 227.177C779.354 238.05 776.085 252.65 769.007 262.258C763.962 269.08 753.696 277.531 747.372 283.169C737.537 291.956 725.886 301.04 715.028 308.01C711.974 309.975 707.91 311.374 705.354 312.679C703.968 313.393 701.035 319.636 700.08 320.78C697.039 324.454 688.67 331.451 688.347 336.457C687.567 349.066 690.608 368.941 698.573 378.952C708.072 390.915 723.773 398.384 729.182 413.643C731.039 418.891 730.487 419.941 733.286 425.754C739.838 439.332 737.887 467.012 734.375 481.491C732.922 487.492 727.527 495.109 726.639 500.976C725.509 508.43 726.007 527.189 729.021 534.173C730.743 538.142 735.169 543.673 736.986 547.373C739.232 551.962 741.345 560.426 744.453 564.975C745.422 566.387 770.595 587.178 774.86 589.465C776.421 590.313 783.673 592.089 784.346 592.951C784.453 593.085 799.872 601.213 802.832 602.491C804.124 603.056 808.335 606.393 810.569 606.676C811.672 606.811 824.386 612.409 830.602 614.548C834.8 615.988 843.236 615.625 847.42 617.509C849.196 618.302 854.215 621.317 856.906 622.689C872.419 630.615 886.627 642.645 893.287 658.201C893.892 659.6 899.22 664.848 899.853 666.302C904.871 677.74 905.692 691.169 910.119 702.298C914.545 713.426 914.464 716.387 914.115 729.036C913.334 757.065 909.998 772.123 895.588 796.681C889.722 806.679 879.187 818.831 871.666 827.402C862.436 837.898 852.264 846.672 842.362 856.065C822.409 874.971 799.953 890.998 778.896 908.504C759.347 924.76 725.966 941.109 701.264 946.183C680.611 950.421 665.973 950.96 645.414 951C644.042 951 624.075 950.408 624.075 950.408C608.212 950.489 588.017 947.084 572.464 943.424C565.898 941.877 554.125 933.843 548.474 932.861C545.541 932.349 495.961 909.931 486.637 900.094C485.345 898.735 470.196 880.946 467.572 876.559C464.666 871.701 464.625 867.947 462.5 862.604C454.037 841.249 449.422 836.284 447.821 812.035C447.794 811.605 449.839 763.821 451.588 751.898C455.422 725.672 463.468 701.423 468.541 675.667C473.048 652.805 475.766 629.539 478.578 606.528C481.121 585.724 488.601 546.378 485.022 527.377C483.812 520.932 483.045 516.76 482.049 510.005C480.26 497.894 467.384 474.386 459.553 464.778C455.315 459.57 433.007 443.947 428.204 453.972C427.733 454.955 425.298 465.141 425.392 465.962C425.944 470.806 431.635 477.198 433.532 481.329C439.317 494.046 446.3 512.602 446.408 526.489C446.569 546.27 442.533 577.624 427.437 591.403C400.272 616.19 369.152 611.695 340.198 592.951C329.501 586.02 324.698 582.724 319.733 570.303C310.046 546.082 307.086 509.44 326.097 489.04C343.023 470.873 357.191 466.5 380.413 459.732C384.948 458.413 389.805 457.7 394.5 456.946C398.55 455.183 397.016 451.859 397.608 449.787C398.9 445.32 402.156 439.574 403.636 434.528C403.865 433.747 394.527 417.99 393.289 417.411C391.93 416.765 387.571 416.079 385.903 415.998C327.591 413.159 292.407 459.153 267.207 504.959C266.171 506.843 260.56 523.475 258.717 528.023C258.583 528.359 254.56 533.46 254.291 533.715C253.739 534.227 240.715 537.214 239.975 536.999C239.585 536.891 231.122 533.325 230.22 527.741C229.157 521.187 231.512 514.392 233.961 508.377C248.438 472.919 267.584 431.957 286.662 398.922C292.919 388.103 306.777 372.736 306.306 359.898C306.238 358.135 304.503 349.51 303.615 348.433C299.996 344.019 289.272 345.19 284.294 346.643C248.882 357.005 225.686 433.303 215.003 465.168C213.739 468.922 211.182 472.488 209.729 476.794C206.85 485.38 205.773 499.684 202.383 506.856C201.885 507.892 198.737 511.66 197.714 512.481C192.575 516.612 186.332 515.414 180.735 512.71C172.312 508.646 175.837 496.077 178.057 489.282C190.745 450.393 209.675 410.575 231.485 375.265C236.705 366.815 248.142 354.704 249.097 345.177C249.851 337.668 250.402 327.428 243.608 322.799C237.782 318.829 222.363 326.593 217.143 330.442C212.877 333.591 202.006 349.873 198.925 355.148C196.49 359.319 193.584 368.658 191.243 372.224C190.556 373.26 175.259 394.844 172.097 401.694C167.684 411.248 164.562 425.068 161.051 435.227C154.081 455.466 145.376 476.525 139.564 497.383C138.608 500.814 139.564 505.093 136.55 507.771C136.133 508.148 128.773 512.737 128.289 512.763C126.58 512.898 118.588 510.059 117.135 508.821C109.627 502.456 115.453 491.812 117 484.572C123.728 453.246 137.841 424.57 150.771 395.598C155.615 384.752 169.352 362.159 165.168 350.64C164.791 349.59 160.862 342.997 160.041 342.566C147.879 336.161 130.428 356.951 124.131 365.402C91.7058 408.906 98.4331 447.379 84.8306 493.332C82.7989 500.182 77.7535 515.993 73.4615 520.932C72.708 521.793 56.7644 526.005 54.4771 522.371C51.3019 517.325 52.4589 503.156 53.3738 497.154C60.6931 448.697 77 413.361 102.591 372.466C115.372 352.039 135.11 319.919 162.907 324.306C173.779 326.028 176.833 335.596 179.82 344.8C182.43 342.364 183.331 339.014 185.592 336.268C197.284 322.032 220.183 304.942 239.262 305.144C249.474 305.251 261.583 313.581 261.583 324.615V338.193C273.49 326.311 298.206 323.243 312.428 332.447C315.159 334.21 317.527 337.264 318.428 340.386C327.107 370.879 308.539 393.351 295.34 418.03C294.627 419.362 301.233 419.712 305.108 417.344C318.025 409.472 327.779 404.089 342.673 399.891C359.007 395.289 390.868 390.471 405.291 401.721C406.448 402.622 412.072 410.198 412.65 409.754C415.274 403.833 416.889 397.509 418.301 391.184C422.876 370.865 428.002 349.079 428.002 328.316C428.002 323.956 428.446 314.133 428.123 310.647C427.948 308.844 428.365 294.782 432.281 291.929C435.738 289.413 443.825 290.194 446.919 292.871C447.511 293.383 450.525 302.21 450.592 303.179C450.794 305.83 448.426 312.168 448.17 315.196C447.215 326.27 447.673 332.258 445.264 343.32C443.529 351.299 444.968 355.753 444.618 362.657C444.174 371.228 442.668 379.558 441.981 388.089C452.099 376.584 463.32 365.805 475.954 357.153C477.111 356.359 542.675 343.764 557.623 350.505C572.571 357.247 576.836 379.396 568.723 392.759C560.489 406.323 542.393 413.509 527.525 414.8C504.922 416.765 482.305 416.792 460.158 422.807C458.006 423.399 447.175 427.449 447.121 429.562C448.978 431.379 452.045 430.908 454.252 431.917C457.79 433.532 468.285 438.861 471.514 440.893C482.91 448.092 495.127 467.859 501.033 479.795C512.254 502.442 507.72 521.349 506.442 544.79C506.079 551.357 508.474 559.417 508.258 566.549C507.249 600.432 498.8 629.296 490.552 661.673C481.874 695.731 477.488 732.346 477.017 766.445C476.6 796.466 480.771 812.964 487.242 839.298C488.817 845.676 487.377 850.534 492.247 856.32C497.602 862.685 506.227 874.204 512.093 878.295C515.282 880.515 521.108 884.121 524.31 885.925C533.297 890.998 543.59 894.402 552.685 899.314C553.977 900.511 582.083 911.384 597.408 914.735C602.131 915.771 607.916 919.673 612.491 920.171C617.065 920.669 622.837 919.189 627.022 919.512C629.888 919.727 633.561 922.19 637.462 922.338C646.019 922.674 653.621 921.18 661.64 920.292C684.042 917.776 703.107 917.265 724.419 909.002C756.549 896.555 782.529 882.574 807.393 858.837C833.455 833.956 853.838 805.24 867.925 772.231C874.599 756.595 877.882 736.881 875.298 720.276C874.357 714.234 871.544 709.107 871.935 702.715C871.988 701.719 866.755 679.92 863.741 674.564C862.651 672.626 859.61 665.737 858.332 663.086C856.731 659.748 842.631 646.157 839.361 643.91C836.468 641.932 828.328 638.528 824.911 636.899C810.932 630.238 801.123 633.226 787.063 631.005C762.495 627.116 739.179 608.116 724.311 589.519C711.651 573.681 697.322 542.583 698.681 522.129C699.851 504.434 700.779 486.281 703.08 468.546C703.618 464.401 705.838 460.189 705.771 455.439C705.717 451.846 702.919 448.253 702.461 444.001C700.497 425.848 701.829 424.381 689.531 410.037C679.723 398.585 667.278 378.441 666.04 362.522C664.869 347.505 668.421 342.781 672.579 330.105C674.139 325.315 674.409 319.569 676.252 314.698C684.177 293.786 709.283 277.154 725.28 263.186C749.458 242.06 755.768 221.916 766.303 192.863C775.963 166.233 784.157 151.336 802.967 129.981C803.707 129.147 817.269 113.712 825.88 107.024C839.159 96.7166 854.928 88.9388 868.692 79.4116C888.053 66.009 889.95 55.8224 916.415 51.6509C918.541 51.3145 922.08 50.4802 923.735 49H938.4L938.387 49.0135ZM549.483 370.757C547.411 368.981 541.276 368.322 538.424 368.295C507.397 368.053 497.145 373.664 472.954 390.525L461.746 404.251C468.043 402.663 474.662 402.353 481 401.142C482.466 400.86 521 397.617 535.06 392.866C540.953 390.875 548.945 386.798 551.865 381.011C553.022 378.737 551.407 372.399 549.483 370.744V370.757ZM391.352 475.462L361.348 486.9C344.073 500.693 338.61 515.684 340.278 537.591L346.279 557.654L359.572 537.308C370.121 523.233 384.961 501.877 389.845 484.586C390.679 481.625 391.54 478.584 391.352 475.462ZM420.346 563.925C434.77 541.681 431.043 513.436 419.014 490.708C417.871 488.542 414.373 484.814 412.624 482.796C412.624 483.469 399.774 509.816 393.437 521.954C388.89 530.647 381.718 538.263 376.256 546.23C372.394 551.868 369.246 559.027 365.277 564.248C363.541 566.535 356.034 570.398 360.595 573.412C366.407 575.013 372.26 580.49 378.126 581.553C382.741 582.401 397.85 582.185 401.82 580.248C410.242 576.13 415.18 571.891 420.346 563.925Z"></path>
</svg>
